<svg version="1.1" id="moomin" xmlns="http://www.w3.org/2000/svg" xmlns:xlink="http://www.w3.org/1999/xlink" x="0px" y="0px"
	 viewBox="0 0 503 508" style="enable-background:new 0 0 503 508;" xml:space="preserve">
<style type="text/css">
	.st0{display:none;fill:#377DB8;}
	.st1{fill:#377DB8;stroke:#FFFFFF;stroke-width:6;stroke-miterlimit:10;}
	.st2{fill:#FFFFFF;stroke:#FFFFFF;stroke-width:5;stroke-miterlimit:10;}
	.st3{fill:none;stroke:#000000;stroke-width:3;stroke-miterlimit:10;}
	.st4{fill:none;stroke:#000000;stroke-width:4;stroke-miterlimit:10;}
	.st5{fill:#FFFFFF;stroke:#000000;stroke-width:4;stroke-miterlimit:10;}
	.st6{fill:#FFFFFF;stroke:#000000;stroke-width:3;stroke-miterlimit:10;}
	.st7{display:none;}
	.st8{display:inline;fill:#FFFFFF;stroke:#000000;stroke-width:4;stroke-miterlimit:10;}
	.st9{display:inline;fill:#FFFFFF;}
	.st10{fill:#FCEE21;}
	.st11{fill:none;stroke:#ffff99;stroke-width:6;stroke-miterlimit:10;}
	.st12{display:none;fill:none;stroke:#000000;stroke-width:2;stroke-miterlimit:10;}
	.st13{display:inline;fill:none;stroke:#000000;stroke-width:3;stroke-miterlimit:10;}
	#moomin:hover .st7{
		display:inline;
	}
	#moomin:hover .st12{
		display:inline;
	}
	svg:hover > * {
		animation-play-state: paused;
	}
</style>
<circle class="st0" cx="252" cy="255" r="250"/>
<circle class="st1" cx="253" cy="256" r="232.5"/>
<g id="Layer_1_1_">
	<path class="st2" d="M115.5,394.5c23-21.1,33.2-22.7,38-23c4.9-0.3,6,0.6,24,6c37.7,11.3,50.9,12.7,55,13c10.3,0.8,24.4,1.3,42-2
		c11.6-2.2,15.1-2.7,17.3-2.9c1-0.1,1.7-0.1,2.7-0.1c2.4-0.1,4.6,0.1,6.7,0.4c4.5,0.7,9,2.4,9.3,2.6c11.8,4.7,28,17,28,17
		c12.3,9.3,18.5,14,21,17c9.2,10.9,13.3,23,14,25c0,0,0,0,0,0c-1.8,7.4-4.7,10-7,11c-1.9,0.8-4.7,1.1-9,3c-1.1,0.5-2.3,1-3.5,1.8
		c-2.2,1.5-2.8,2.7-8.2,5.4c-6.4,3.2-11.4,4.6-14.3,5.8l0,0c-29.8,10.8-58,13-58,13c-28.3,2.3-52.7-1.4-71-6
		c-9.5-0.6-23.4-2.7-38-10c-9.9-4.9-10.6-7.5-25-17c-26.1-17.3-40-17.4-42-28c-1.3-7,3.2-14.3,6-19
		C104.7,405.5,106.7,402.6,115.5,394.5z"/>
	<path class="st3" d="M134.5,446.1c1.8-2.8,4-5.9,6.6-9.2c2.8-3.6,5.7-7,8.6-10.2"/>
	<path class="st4" d="M95.1,425.2c2.5-7.6,8.9-24.2,23.5-39c14.5-14.7,29.3-19.9,36-21.8"/>
	<path class="st4" d="M311,386c6.3,1.9,13.9,4.8,21.9,9.5c10.4,6.1,17.5,12.8,21.1,16.5c5.2,5.3,8.4,10,10.5,13
		c4,5.7,9.1,14.1,13.5,25"/>
	<path class="st3" d="M320,409c11.8,14.2,19.1,32.5,21,53"/>
</g>
<g id="Layer_2_1_">
	<path class="st5" d="M101.3,159.7c-1,11.7-1.3,19.3-1.3,19.3c-1.1,31.7-2.3,64.1,5,99c5.7,27.2,10.2,48.3,27,71
		c4.8,6.4,27.7,36.2,69,48c21.4,6.1,39,4.9,52,4c14.9-1,37.4-2.8,62-16c11.7-6.3,30.9-16.6,44-39c3.9-6.6,22.3-40.2,7.9-70.2
		c-5.3-11.1-13-17.8-19.4-23.3c-20.9-18-34.8-14.5-52.5-25.5c-30.3-18.9-38.4-59.6-41.6-75.7c-6.9-34.7-0.4-66.9-8.3-69.8
		c-6.1-2.2-15.9,6.1-17.8,7.7c0,0-0.1,0.1-0.3,0.2C217.2,98.4,213,116,213,116c-3.9,16.5-3.1,33.2-8.6,36.9
		c-1.2,0.8-2.4,1.3-2.4,1.3c-3.6,1.2-7.3-0.7-18.5,1.3c-6.8,1.2-8.5,2.8-16.4,5c-6.2,1.7-9.3,2.5-10.6,2c-7.4-2.8-2.7-20.6-8.5-44.5
		c-0.8-3.4-8.2-32.7-19-33c-6.2-0.2-11.3,9-15,16C110.1,108.3,104.5,120.8,101.3,159.7z"/>
	<ellipse transform="matrix(0.9376 -0.3478 0.3478 0.9376 -65.0178 103.7608)" class="st6" cx="256.5" cy="233" rx="20" ry="28.5"/>
	<path class="st3" d="M162.8,214.6c2.2-13.7,15.6-22.9,30-20.6"/>
	<path class="st3" d="M228.6,188.8c9.9-6.5,22.3-5.2,27.6,3"/>
	<ellipse transform="matrix(0.9376 -0.3478 0.3478 0.9376 -73.1159 85.6489)" class="st6" cx="202" cy="246.5" rx="21.5" ry="29"/>
	<path class="st4" d="M120,170c1.7-32.5,4.1-48.8,7-49c2.5-0.2,5.5,11.8,9,35.8"/>
	<path class="st4" d="M222,146c6-26.3,10.4-39.3,13-39c2.3,0.3,3.3,11,3,32"/>
	<ellipse cx="210.5" cy="258" rx="12.5" ry="15">
					    <animateTransform
      			attributeName="transform"
				attributeType="XML"
      			type="translate"
				begin=".3"
      			dur="2s"
				values="-2,1;2,0;-2,1;"
      			repeatCount="indefinite" />
	</ellipse>
	<ellipse cx="263.5" cy="244" rx="12.5" ry="15">
							    <animateTransform
      			attributeName="transform"
				attributeType="XML"
      			type="translate"
				begin=".3"
      			dur="2s"
				values="-2,1;2,0;-2,1;"
      			repeatCount="indefinite" />
	</ellipse>
</g>
<g id="Layer_3" class="st7">
	<path class="st8" d="M134,438c-1.5-13.8,19.2-18.7,46-49c0.5-0.5,2.2,1.2,31-42c0,0,30.6-41.6,39.1-38.5c0,0,0.1,0,0.2,0.1
		c0,0,0,0,0,0c0.9,0.4,3.8,1.7,4.7,4.4c1.6,4.7-4.1,9.3-11.7,21.8c-4.5,7.4-6.1,12.7-5.7,13c0.9,0.5,8.7-16.9,16.4-15.8
		c2.1,0.3,4.3,1.9,5,4c2,6.4-9.9,16.1-10,16c0,0,10.3-14,16-12c1.7,0.6,2.7,2.5,3,4c1.2,6.1-8.2,12.8-8,13c0.2,0.2,5.1-6.4,11-6
		c1,0.1,2.4,0.1,3,1c2.8,3.9-10.6,18.9-12,18c-0.9-0.6,3-8,3-8c0,0-2.1,5.1-7.6,18.5c-3.7,9-8.6,21.4-14.4,37.5
		c-8.8,24.4-17.6,46.3-35.1,56.8c-0.9,0.5-1.8,0.9-2.9,1.2c-14.3,4.1-29.4-5-46-15C143.5,451.7,134.9,446.6,134,438z"/>
	<path class="st9" d="M216,478c-31.7,16.5-80-26.2-82-28c-1.7-1.5-16.2-14.6-14-18c1.7-2.6,13.3,1.8,20,5c13.1,6.3,17.8,12.7,25,18
		c24.9,18.3,58.5,6.7,60,14C225.8,472.8,216.7,477.6,216,478z"/>
</g>
<g id="Layer_4">
	<g>
		<path class="st10" d="M319.4,158.1V196h-8.6l0-25.6l-3.4,25.6h-6.1l-3.6-25l0,25H289v-37.9h12.8c0.4,2.3,0.8,5,1.2,8.1l1.4,9.7
			l2.3-17.7H319.4z">
			    <animateTransform
      			attributeName="transform"
				attributeType="XML"
      			type="translate"
				begin=".3"
      			dur="2s"
				values="5,0;-5,0;0,0;0,0;0,0;0,0;0,0;0,0;0,0;0,0;0,0;0,0;"
      			repeatCount="indefinite" />
  />
		</path>
		<path class="st10" d="M345.9,180.3c0,3.8-0.1,6.5-0.3,8.1s-0.7,3-1.7,4.3s-2.2,2.3-3.8,3s-3.5,1.1-5.6,1.1c-2,0-3.9-0.3-5.5-1
			s-2.9-1.7-3.9-3s-1.6-2.8-1.8-4.3s-0.3-4.3-0.3-8.2v-6.5c0-3.8,0.1-6.5,0.3-8.1s0.7-3,1.7-4.3s2.2-2.3,3.8-3s3.5-1.1,5.6-1.1
			c2,0,3.9,0.3,5.5,1s2.9,1.7,3.9,3s1.6,2.8,1.8,4.3s0.3,4.3,0.3,8.2V180.3z M336.1,167.8c0-1.8-0.1-2.9-0.3-3.4s-0.6-0.7-1.2-0.7
			c-0.5,0-0.9,0.2-1.2,0.6s-0.4,1.6-0.4,3.5v17.7c0,2.2,0.1,3.6,0.3,4.1s0.6,0.8,1.3,0.8c0.7,0,1.1-0.3,1.3-0.9s0.3-2,0.3-4.2
			L336.1,167.8L336.1,167.8z">
				<animateTransform
      			attributeName="transform"
				attributeType="XML"
      			type="translate"
				begin=".4"
      			dur="2s"
				values="5,0;0,0;"
      			repeatCount="indefinite"/>
		</path>
		<path class="st10" d="M372.1,180.3c0,3.8-0.1,6.5-0.3,8.1s-0.7,3-1.7,4.3s-2.2,2.3-3.8,3s-3.5,1.1-5.6,1.1c-2,0-3.9-0.3-5.5-1
			s-2.9-1.7-3.9-3s-1.6-2.8-1.8-4.3s-0.3-4.3-0.3-8.2v-6.5c0-3.8,0.1-6.5,0.3-8.1s0.7-3,1.7-4.3s2.2-2.3,3.8-3s3.5-1.1,5.6-1.1
			c2,0,3.9,0.3,5.5,1s2.9,1.7,3.9,3s1.6,2.8,1.8,4.3s0.3,4.3,0.3,8.2V180.3z M362.3,167.8c0-1.8-0.1-2.9-0.3-3.4s-0.6-0.7-1.2-0.7
			c-0.5,0-0.9,0.2-1.2,0.6s-0.4,1.6-0.4,3.5v17.7c0,2.2,0.1,3.6,0.3,4.1s0.6,0.8,1.3,0.8c0.7,0,1.1-0.3,1.3-0.9s0.3-2,0.3-4.2
			L362.3,167.8L362.3,167.8z">
				<animateTransform
      			attributeName="transform"
				attributeType="XML"
      			type="translate"
				begin=".5"
      			dur="2s"
				values="5,0;0,0;"
      			repeatCount="indefinite"/>
		</path>
		<path class="st10" d="M406.3,158.1V196h-8.6l0-25.6l-3.4,25.6h-6.1l-3.6-25l0,25h-8.6v-37.9h12.8c0.4,2.3,0.8,5,1.2,8.1l1.4,9.7
			l2.3-17.7H406.3z">
				<animateTransform
      			attributeName="transform"
				attributeType="XML"
      			type="translate"
				begin=".6"
      			dur="2s"
				values="5,0;0,0;"
      			repeatCount="indefinite"/>
		</path>
		<path class="st10" d="M420.1,158.1V196h-9.9v-37.9H420.1z">
				<animateTransform
      			attributeName="transform"
				attributeType="XML"
      			type="translate"
				begin=".7"
      			dur="2s"
				values="5,0;0,0;"
      			repeatCount="indefinite"/>
		</path>
		<path class="st10" d="M446.1,158.1V196h-8.6l-5.1-17.3V196h-8.3v-37.9h8.3l5.5,17.1v-17.1H446.1z">
				<animateTransform
      			attributeName="transform"
				attributeType="XML"
      			type="translate"
				begin=".8"
      			dur="2s"
				values="12,-3;0,0;"
      			repeatCount="indefinite"/>
		</path>
	</g>
</g>
<g id="Layer_5">
	<circle class="st11" cx="253" cy="256" r="232.5"/>
</g>
	<path id="line" class="st12" d="M281,324.3c13-0.4,26.3-2.8,37.7-9.1c11.4-6.3,20.8-17,23.7-29.7c0.4-2,0.7-4.1,0.2-6
		c-1-3.7-4.4-6.1-7.6-8.2c-4.3-2.8-8.8-5.7-13.8-6.8c-5-1.1-10.9-0.2-14.3,3.7c-2.3,2.6-3.2,6-4,9.3c-0.6,2.2-1.2,4.6-0.5,6.8
		c1.6,5.5,9,6.3,14.6,5.5c38.1-5.6,69.5-41,70.6-79.4c0.3,5.1-2.1,10.3-6.2,13.5c3.8,0.8,7.7,1.2,11.6,1.2c-1.5-4-3-8-4.5-12"/>
<g id="text" class="st7">
	<path class="st13" d="M280.7,106.3c8.9-0.8,17.7-1.7,26.6-2.5"/>
	<path class="st13" d="M295,105.4c2.6,10.4,5.2,20.8,7.8,31.2"/>
	<path class="st13" d="M288.7,139.4c8.8-2,17.7-3.4,26.7-4.5"/>
	<path class="st13" d="M320.3,104.9c1.2,1.8,0.2,4.7-1.9,4.9c-2.1,0.3-3.7-2.9-2-4.2c2.1-0.3,4.2-0.6,6.3-0.9c0,4.2,0,8.4,0.1,12.5"
		/>
	<path class="st13" d="M335.2,109.4c1.6,7.9,3.2,15.7,4.8,23.6c-1.5-4.4-2.1-9-1.8-13.6c0.1-2,0.5-4.1,1.8-5.7
		c1.3-1.6,3.7-2.3,5.3-1.1c1.1,0.8,1.5,2.2,1.8,3.5c1.1,4.2,1.9,8.5,2.5,12.9c-0.4-4.8-0.2-9.7,0.7-14.4c0.3-1.6,0.9-3.4,2.5-3.7
		c1.7-0.4,3.1,1.2,3.9,2.7c2.5,4.3,4.3,9,5.2,13.9"/>
</g>
</svg>
